@startuml

title __CONDITION's Class Diagram__\n

  package org.fluentcodes.projects.elasticobjects {
    package org.fluentcodes.projects.elasticobjects.condition {
      class AndTest {
          {static} ~ ifPattern : Pattern
          + AndTest()
          + and()
          + and2()
          + simple()
          + simpleLeadingSpace()
          + simpleMultipleSpacesBeforeOperator()
          + simpleMultipleSpacesAfterOperator()
          + simpleMultipleSpacesAfterValue()
          - pattern()
          + filterAdapter()
          + filterRow()
      }
    }
  }
  

  package org.fluentcodes.projects.elasticobjects {
    package org.fluentcodes.projects.elasticobjects.condition {
      class ConditionTest {
          {static} - LOG : Logger
          + ConditionTest()
          + eq()
      }
    }
  }
  

  package org.fluentcodes.projects.elasticobjects {
    package org.fluentcodes.projects.elasticobjects.condition {
      class EqTest {
          {static} - LOG : Logger
          + EqTest()
          + filterAdapter()
          + filterRow()
      }
    }
  }
  

  package org.fluentcodes.projects.elasticobjects {
    package org.fluentcodes.projects.elasticobjects.condition {
      class ExistTest {
          {static} - LOG : Logger
          + ExistTest()
      }
    }
  }
  

  package org.fluentcodes.projects.elasticobjects {
    package org.fluentcodes.projects.elasticobjects.condition {
      class LikeTest {
          {static} - LOG : Logger
          + LikeTest()
          + filterAdapter()
          + filterRow()
      }
    }
  }
  

  package org.fluentcodes.projects.elasticobjects {
    package org.fluentcodes.projects.elasticobjects.condition {
      class NotExistTest {
          {static} - LOG : Logger
          + NotExistTest()
      }
    }
  }
  

  package org.fluentcodes.projects.elasticobjects {
    package org.fluentcodes.projects.elasticobjects.condition {
      class OrTest {
          {static} ~ ifPattern : Pattern
          + OrTest()
          + oneCondition()
          + twoConditions()
          + filterAdapter()
          + filterRow()
      }
    }
  }
  

  EqTest -up-|> TestHelper
  ExistTest -up-|> TestHelper
  LikeTest -up-|> TestHelper
  NotExistTest -up-|> TestHelper


right footer


PlantUML diagram generated by SketchIt! (https://bitbucket.org/pmesmeur/sketch.it)
For more information about this tool, please contact philippe.mesmeur@gmail.com
endfooter

@enduml
