@startuml

title __CONFIG's Class Diagram__\n

  package org.fluentcodes.projects.elasticobjects {
    package org.fluentcodes.projects.elasticobjects.config {
      class FieldConfigsTest {
          {static} - LOG : Logger
          + FieldConfigsTest()
          + findConfigInCache()
          + readConfigClassPath()
          + readMapMain()
          + readConfigMain()
      }
    }
  }
  

  package org.fluentcodes.projects.elasticobjects {
    package org.fluentcodes.projects.elasticobjects.config {
      class FileConfigTest {
          {static} - LOG : Logger
          + FileConfigTest()
          + findConfigInCache()
          + readConfigClassPath()
          + readMapTest()
          + readConfigTest()
      }
    }
  }
  

  package org.fluentcodes.projects.elasticobjects {
    package org.fluentcodes.projects.elasticobjects.config {
      class ModelConfigTest {
          + ModelConfigTest()
          + findConfigInCache()
          + readConfigClassPath()
          + readMapMain()
          + readConfigMain()
          + checkDependentModels()
          + checkModelXlsxConfig()
          + checkModelXlsxAction()
      }
    }
  }
  

  package org.fluentcodes.projects.elasticobjects {
    package org.fluentcodes.projects.elasticobjects.config {
      class XlsxConfigSourceXlsxTest {
          + XlsxConfigSourceXlsxTest()
          + checkSource()
          + read()
      }
    }
  }
  

  package org.fluentcodes.projects.elasticobjects {
    package org.fluentcodes.projects.elasticobjects.config {
      class XlsxConfigTest {
          + XlsxConfigTest()
          + findConfigInCache()
          + readMapTest()
          + readConfigTest()
          + readSourceXlsx()
          + checkTarget()
      }
    }
  }
  

  FileConfigTest -up-|> TestHelper
  ModelConfigTest -up-|> TestHelper
  XlsxConfigSourceXlsxTest -up-|> TestHelper
  XlsxConfigTest -up-|> TestHelper


right footer


PlantUML diagram generated by SketchIt! (https://bitbucket.org/pmesmeur/sketch.it)
For more information about this tool, please contact philippe.mesmeur@gmail.com
endfooter

@enduml
