@startuml

title __EXECUTOR's Class Diagram__\n

  package org.fluentcodes.projects.elasticobjects {
    package org.fluentcodes.projects.elasticobjects.executor {
      class CsvCallWithExecutorWriteTest {
          {static} - LOG : Logger
          + CsvCallWithExecutorWriteTest()
          + direct()
      }
    }
  }
  

  package org.fluentcodes.projects.elasticobjects {
    package org.fluentcodes.projects.elasticobjects.executor {
      class CsvCallWithinExecutorReadTest {
          {static} - LOG : Logger
          {static} - SAMPLE_MAP_PATH : String
          {static} - A : String
          {static} - B : String
          {static} - SAMPLE_MAP_PATH_A : String
          + CsvCallWithinExecutorReadTest()
          + direct()
          + withMapPath()
          + withColKeys()
      }
    }
  }
  

  CsvCallWithExecutorWriteTest -up-|> TestHelper
  CsvCallWithinExecutorReadTest -up-|> TestHelper


right footer


PlantUML diagram generated by SketchIt! (https://bitbucket.org/pmesmeur/sketch.it)
For more information about this tool, please contact philippe.mesmeur@gmail.com
endfooter

@enduml
