@startuml

title __CALLS's Class Diagram__\n

  package org.fluentcodes.projects.elasticobjects {
    package org.fluentcodes.projects.elasticobjects.calls {
      class XlsxCallReadTest {
          {static} - LOG : Logger
          + XlsxCallReadTest()
          + serialize()
          + withNoPath()
      }
    }
  }
  

  package org.fluentcodes.projects.elasticobjects {
    package org.fluentcodes.projects.elasticobjects.calls {
      class XlsxCallTest {
          {static} - LOG : Logger
          + XlsxCallTest()
          + readSourceDirect()
          + readSourceOr()
          + writeDirect()
      }
    }
  }
  

  package org.fluentcodes.projects.elasticobjects {
    package org.fluentcodes.projects.elasticobjects.calls {
      class XlsxCallWriteTest {
          {static} - LOG : Logger
          + XlsxCallWriteTest()
          + withTarget()
      }
    }
  }
  

  XlsxCallReadTest -up-|> TestHelper
  XlsxCallTest -up-|> TestHelper
  XlsxCallWriteTest -up-|> TestHelper


right footer


PlantUML diagram generated by SketchIt! (https://bitbucket.org/pmesmeur/sketch.it)
For more information about this tool, please contact philippe.mesmeur@gmail.com
endfooter

@enduml
