@startuml

title __CONFIG's Class Diagram__\n

  package org.fluentcodes.projects.elasticobjects {
    package org.fluentcodes.projects.elasticobjects.config {
      class CsvConfigTest {
          {static} - LOG : Logger
          + CsvConfigTest()
          + fromSourceCsv()
          + fromTargetCsv()
          + fromCache()
          + readMapTest()
          + readConfigTest()
      }
    }
  }
  

  package org.fluentcodes.projects.elasticobjects {
    package org.fluentcodes.projects.elasticobjects.config {
      class FieldConfigsTest {
          {static} - LOG : Logger
          + FieldConfigsTest()
          + findConfigInCache()
          + readConfigClassPath()
          + readMapMain()
          + readConfigMain()
      }
    }
  }
  

  package org.fluentcodes.projects.elasticobjects {
    package org.fluentcodes.projects.elasticobjects.config {
      class FileConfigTest {
          {static} - LOG : Logger
          + FileConfigTest()
          + findConfigInCache()
          + readConfigClassPath()
          + readMapTest()
          + readConfigTest()
      }
    }
  }
  

  package org.fluentcodes.projects.elasticobjects {
    package org.fluentcodes.projects.elasticobjects.config {
      class ModelConfigsTest {
          {static} - LOG : Logger
          + ModelConfigsTest()
          + findConfigInCache()
          + readConfigClassPath()
          + readMapMain()
          + readConfigMain()
      }
    }
  }
  

  CsvConfigTest -up-|> TestHelper
  FileConfigTest -up-|> TestHelper


right footer


PlantUML diagram generated by SketchIt! (https://bitbucket.org/pmesmeur/sketch.it)
For more information about this tool, please contact philippe.mesmeur@gmail.com
endfooter

@enduml
