@startuml

title __CALLS's Class Diagram__\n

  package org.fluentcodes.projects.elasticobjects {
    package org.fluentcodes.projects.elasticobjects.calls {
      class CsvCallTest {
          {static} - LOG : Logger
          + CsvCallTest()
          - createActionWithSourceCsv()
          + withSourceCsv()
          + withSourceCsv_IgnoreHeader()
          + withSourceCsv_IgnoreHeaderSetRowStartTo2()
          + withSourceCsv_RemoveRowHeadSetRowEndTo2()
          + withTargetCsv()
      }
    }
  }
  

  package org.fluentcodes.projects.elasticobjects {
    package org.fluentcodes.projects.elasticobjects.calls {
      class EOAddCallTest {
          {static} - METHOD_READ_SOUCE : String
          + EOAddCallTest()
          + addFileCsvReadAction()
      }
    }
  }
  

  CsvCallTest -up-|> TestHelper
  EOAddCallTest -up-|> TestHelper


right footer


PlantUML diagram generated by SketchIt! (https://bitbucket.org/pmesmeur/sketch.it)
For more information about this tool, please contact philippe.mesmeur@gmail.com
endfooter

@enduml
